<?xml version="1.0" standalone="no"?>
<!DOCTYPE svg PUBLIC "-//W3C//DTD SVG 20010904//EN"
 "http://www.w3.org/TR/2001/REC-SVG-20010904/DTD/svg10.dtd">
<svg version="1.0" xmlns="http://www.w3.org/2000/svg"
 width="1280.000000pt" height="866.000000pt" viewBox="0 0 1280.000000 866.000000"
 preserveAspectRatio="xMidYMid meet">
<metadata>
Created by potrace 1.15, written by Peter Selinger 2001-2017
</metadata>
<g transform="translate(0.000000,866.000000) scale(0.100000,-0.100000)"
fill="#000000" stroke="none">
<path d="M1870 8548 c-86 -159 -274 -472 -358 -593 -111 -162 -179 -249 -284
-366 -140 -154 -255 -295 -332 -403 -37 -53 -70 -96 -73 -96 -6 0 5 128 23
263 8 59 14 112 14 118 0 6 14 7 34 3 55 -10 96 5 149 55 55 51 112 129 103
139 -15 14 -136 14 -187 -1 -29 -9 -55 -14 -58 -12 -9 9 73 243 112 320 35 68
40 88 38 135 -1 30 -6 58 -10 63 -14 14 -194 -378 -237 -515 -10 -32 -21 -58
-25 -58 -19 0 -131 137 -161 197 -33 67 -33 69 -32 208 0 123 13 244 30 290 5
12 -3 15 -39 15 -45 0 -45 -1 -51 -37 -15 -90 -24 -336 -16 -429 13 -147 44
-228 147 -377 29 -44 52 -82 49 -84 -3 -3 -20 6 -38 20 -37 29 -151 84 -183
89 -18 3 -20 -2 -17 -47 9 -142 93 -265 181 -265 23 0 23 7 -4 -99 l-11 -43
-28 41 c-37 53 -129 122 -230 173 -63 31 -81 37 -88 26 -14 -21 -1 -177 22
-251 38 -122 118 -197 213 -197 26 0 47 -5 47 -10 0 -18 -30 -70 -100 -175
-145 -217 -229 -394 -279 -596 l-28 -108 -32 20 c-17 10 -34 19 -36 19 -3 0
-5 -27 -5 -60 0 -54 2 -62 25 -72 18 -8 26 -21 30 -52 33 -241 34 -437 3 -579
-18 -86 -21 -128 -19 -266 2 -99 9 -186 17 -218 15 -57 45 -122 67 -144 7 -8
29 -111 50 -229 l36 -215 -26 -20 c-79 -60 -129 -104 -155 -135 -51 -64 -103
-323 -114 -574 -5 -113 -3 -144 16 -226 43 -191 61 -308 70 -470 19 -337 32
-1090 25 -1416 -12 -570 -8 -1219 7 -1251 28 -58 26 -58 558 -44 491 12 728
25 743 40 4 4 -85 302 -198 662 -114 360 -272 861 -352 1114 -79 253 -187 588
-238 745 -200 610 -211 655 -202 859 10 248 60 303 373 411 429 148 998 250
1395 250 221 0 451 -39 583 -99 73 -33 216 -129 291 -195 l50 -44 -29 -23
c-33 -26 -56 -75 -56 -122 0 -34 20 -119 40 -171 l11 -29 38 37 c43 42 85 114
96 164 8 37 19 33 56 -19 l20 -28 -22 -30 c-31 -42 -30 -111 3 -181 40 -86
178 -235 198 -214 21 23 50 150 50 223 0 95 -13 142 -50 185 -29 33 -94 59
-132 53 -12 -1 -47 33 -101 98 l-84 100 48 12 c51 13 129 50 164 77 17 13 18
17 5 25 -31 21 1 19 140 -9 482 -95 699 -188 959 -411 l84 -72 -25 -21 c-38
-31 -50 -62 -50 -127 0 -58 36 -189 52 -189 10 0 83 86 100 120 8 14 19 42 25
64 l11 39 82 -92 c82 -91 91 -105 72 -116 -16 -10 -31 -83 -24 -120 16 -89
157 -178 346 -219 26 -6 27 -5 21 31 -21 152 -92 281 -178 323 -23 11 -50 20
-61 20 -11 0 -31 11 -43 24 -25 27 -26 27 49 41 45 9 130 45 130 55 0 14 -75
69 -121 90 -59 26 -148 27 -181 1 l-25 -20 -69 71 -69 70 60 -6 c189 -19 377
-28 585 -29 254 0 269 2 760 83 459 76 851 162 988 216 l65 26 116 -36 c375
-117 803 -181 1059 -159 l104 9 55 -43 c69 -54 179 -122 256 -160 48 -23 57
-31 52 -48 -19 -61 -17 -94 8 -147 24 -55 112 -153 174 -196 l32 -23 13 43 c7
24 13 92 13 156 0 96 2 111 15 106 8 -3 57 -11 107 -17 l93 -11 -6 -38 c-24
-149 109 -243 375 -264 l84 -7 -7 29 c-14 61 -79 177 -132 234 l-55 59 43 11
c24 6 57 15 75 20 26 7 35 4 54 -16 35 -37 117 -74 166 -74 115 0 256 98 398
274 47 60 47 60 24 69 -50 18 -174 37 -249 37 -194 0 -328 -71 -360 -191 -9
-33 -15 -38 -68 -52 -74 -21 -217 -39 -271 -35 l-43 3 47 35 c63 47 126 134
186 254 27 56 49 104 49 108 0 14 -138 9 -218 -8 -200 -40 -322 -147 -322
-282 0 -38 -4 -52 -14 -52 -44 0 -326 173 -326 200 0 5 91 55 203 113 171 88
319 170 499 276 l36 22 7 -31 c10 -44 65 -95 130 -119 59 -22 240 -50 251 -38
12 12 -64 155 -108 203 -24 26 -62 56 -86 66 l-43 20 93 68 c51 38 96 69 99
70 4 0 9 -17 13 -38 12 -80 82 -153 185 -195 52 -20 71 -22 236 -21 182 2 333
24 342 50 5 15 -86 133 -155 199 -114 112 -233 173 -354 183 -38 2 -68 7 -68
9 0 2 16 25 35 51 36 46 36 46 100 47 51 2 72 7 104 28 77 51 127 146 155 296
14 71 22 181 14 181 -2 0 -23 -6 -48 -14 -211 -65 -371 -214 -373 -345 0 -25
7 -60 16 -77 16 -31 16 -32 -21 -81 -58 -77 -132 -159 -171 -191 l-36 -29 -1
81 c0 45 -8 110 -18 146 -20 75 -90 230 -104 230 -18 0 -126 -147 -160 -219
-30 -62 -36 -88 -40 -157 -6 -103 18 -160 84 -207 l44 -31 -58 -36 c-95 -60
-153 -93 -157 -88 -2 2 3 24 11 48 22 63 14 231 -16 325 -33 106 -91 235 -104
235 -7 0 -41 -33 -75 -72 -204 -237 -247 -473 -111 -609 l48 -48 -176 -70
c-296 -116 -327 -123 -542 -129 -332 -8 -664 31 -850 99 -59 22 -130 59 -130
68 0 3 61 35 136 70 194 92 417 217 584 328 176 117 321 256 458 443 164 221
170 227 291 251 82 16 609 6 806 -15 166 -18 275 -20 330 -5 94 25 228 105
460 273 101 73 117 79 375 131 189 38 302 45 348 21 15 -8 55 -46 89 -84 61
-68 62 -70 43 -87 -57 -51 -63 -165 -13 -256 50 -93 240 -276 263 -253 13 14
38 121 45 194 6 59 -9 168 -30 221 -5 13 1 15 36 10 l43 -6 0 -52 c2 -112 105
-178 300 -190 l88 -6 -7 24 c-13 43 -46 103 -86 156 l-38 51 70 7 c57 6 73 4
87 -9 29 -25 89 -46 135 -46 57 0 145 44 219 110 66 59 183 209 171 220 -14
13 -136 30 -214 30 -132 0 -248 -40 -308 -104 -13 -14 -32 -49 -42 -78 -17
-50 -20 -53 -66 -66 -79 -21 -220 -9 -333 28 -185 62 -310 145 -310 205 0 21
7 25 57 35 31 7 93 23 137 36 44 13 80 23 80 21 11 -34 51 -85 77 -99 69 -37
213 -17 338 47 l44 22 -54 43 c-30 23 -69 50 -86 58 -60 29 -44 37 63 33 77
-3 105 11 173 85 49 54 121 185 137 248 l7 29 -79 -6 c-123 -10 -244 -59 -306
-124 -38 -39 -61 -99 -54 -138 6 -31 5 -33 -53 -59 -32 -14 -67 -26 -77 -26
-11 0 -32 -7 -48 -15 -28 -15 -133 -45 -156 -45 -7 0 -2 14 12 33 58 75 113
216 136 345 9 51 9 52 -14 52 -41 0 -207 -58 -259 -91 -148 -92 -215 -211
-181 -324 9 -27 13 -52 10 -55 -3 -3 -87 -7 -187 -8 l-181 -4 160 123 c87 68
220 171 295 230 149 118 293 216 439 301 93 54 338 188 344 188 2 0 7 -21 11
-47 14 -96 123 -157 304 -170 l83 -6 -7 24 c-17 53 -68 143 -106 184 -22 24
-62 53 -92 65 l-52 23 43 21 c41 19 44 20 53 4 5 -10 30 -30 55 -44 120 -71
275 -2 451 200 34 39 59 74 55 77 -11 10 -139 37 -212 44 -75 8 -173 -7 -242
-37 -55 -23 -115 -84 -124 -125 -3 -16 -6 -31 -7 -35 -1 -4 -53 -32 -115 -63
-86 -42 -112 -51 -108 -38 16 50 26 136 27 222 l0 96 71 45 c38 25 104 77 146
117 l77 71 -65 30 c-210 96 -421 114 -567 47 l-52 -23 10 26 c6 15 38 75 71
134 l61 107 27 -38 c15 -21 42 -43 59 -50 51 -22 164 -9 256 27 118 47 117 46
70 89 -22 19 -69 50 -105 67 -55 26 -76 31 -141 31 l-77 0 31 43 c25 34 36 42
52 37 11 -4 43 -9 72 -12 97 -10 192 63 267 207 31 58 86 204 86 227 0 11
-118 0 -181 -17 -87 -23 -203 -87 -251 -138 -58 -61 -76 -114 -62 -182 l10
-48 -97 -149 c-124 -188 -177 -263 -186 -263 -12 0 -77 254 -66 257 38 13 83
47 108 82 29 41 30 47 29 149 0 89 -5 119 -26 178 -33 90 -80 188 -93 191 -13
3 -85 -88 -124 -158 -49 -87 -72 -166 -72 -245 -1 -89 24 -142 84 -181 23 -15
45 -31 48 -35 3 -5 16 -94 29 -198 23 -185 23 -192 6 -228 l-18 -37 -14 55
c-28 109 -131 291 -228 405 l-34 40 -56 -116 c-76 -156 -99 -250 -94 -383 3
-95 6 -109 38 -172 27 -53 46 -76 83 -101 68 -45 112 -56 149 -37 17 9 31 14
33 12 7 -6 -57 -158 -66 -158 -5 0 -9 6 -9 14 0 40 -141 161 -257 220 l-53 26
-1 -47 c-3 -163 16 -253 70 -333 34 -52 94 -90 139 -90 17 0 32 -4 32 -10 0
-28 -132 -345 -147 -354 -10 -5 -209 -137 -442 -293 -437 -293 -520 -344 -631
-387 -177 -69 -251 -77 -555 -60 -132 7 -341 18 -465 24 -124 7 -226 13 -228
15 -1 1 22 53 52 115 31 61 65 142 77 179 l22 68 116 38 c64 21 121 40 127 42
6 2 16 -14 23 -36 24 -81 135 -137 295 -148 l88 -6 -7 24 c-18 58 -74 148
-123 197 l-53 53 30 10 c17 6 68 29 112 50 44 21 82 39 85 39 2 0 4 -8 4 -18
0 -45 33 -122 69 -164 82 -93 239 -131 449 -110 113 12 249 36 260 47 10 10
-74 121 -150 197 -45 45 -108 95 -154 122 l-77 45 79 3 c74 3 82 1 122 -27 34
-23 56 -30 108 -33 100 -7 170 32 307 169 59 60 107 115 107 123 0 24 -138 51
-262 51 -60 0 -108 2 -108 6 0 3 8 30 19 60 20 59 47 207 55 307 l6 62 -28 -6
c-47 -11 -175 -64 -232 -96 -154 -87 -250 -191 -285 -313 -19 -65 -14 -128 15
-186 l19 -36 -75 -6 c-54 -4 -93 -14 -140 -36 l-65 -30 8 37 c21 98 -4 391
-37 425 -4 5 -44 -20 -89 -54 -237 -178 -324 -424 -194 -545 l24 -23 -80 -25
c-45 -14 -120 -33 -167 -43 -103 -20 -114 -14 -94 48 41 122 311 528 567 851
l85 106 45 -34 c67 -51 110 -67 184 -67 56 -1 77 4 134 32 113 56 225 173 340
356 55 89 56 89 33 99 -13 6 -100 10 -195 10 -94 1 -169 4 -166 9 2 4 23 7 46
7 74 0 119 19 168 70 56 57 83 124 101 244 21 145 -14 363 -84 536 -17 41 -35
79 -39 84 -12 13 -191 -172 -272 -280 -157 -208 -201 -363 -139 -485 25 -49
56 -80 132 -130 l25 -17 -45 -41 c-25 -23 -66 -53 -92 -66 l-48 -25 0 38 c0
129 -104 335 -256 506 l-42 47 -35 -63 c-81 -147 -120 -287 -119 -428 0 -188
82 -302 228 -319 l54 -6 -67 -78 -67 -79 -17 61 c-9 34 -31 90 -48 124 -39 76
-142 218 -156 214 -18 -6 -94 -170 -111 -240 -22 -90 -16 -206 14 -264 21 -40
86 -103 107 -103 5 0 16 -4 24 -9 11 -7 5 -21 -27 -66 -41 -57 -41 -57 -47
-29 -24 117 -75 198 -184 291 -119 101 -333 225 -354 204 -8 -8 -12 -67 -12
-169 0 -175 17 -257 76 -373 59 -119 171 -199 277 -199 28 0 52 -4 52 -9 0 -4
-30 -62 -67 -127 -37 -65 -97 -185 -134 -265 -89 -194 -132 -268 -306 -526
-156 -230 -249 -336 -400 -455 -40 -32 -89 -80 -110 -107 -21 -28 -42 -50 -47
-50 -13 -1 1 510 19 694 7 83 29 257 47 388 l32 238 31 -8 c95 -25 190 7 255
84 60 72 160 313 160 386 0 22 -25 22 -127 -3 -83 -20 -181 -61 -240 -100
l-32 -21 2 105 2 106 29 0 c118 0 209 93 241 247 15 69 19 293 7 325 -6 15
-13 14 -67 -14 -91 -46 -177 -111 -237 -178 l-54 -61 -29 73 c-15 40 -47 112
-71 159 l-42 85 65 11 c134 23 205 86 244 215 19 62 21 86 16 207 -4 98 -13
165 -32 240 -14 58 -28 107 -30 109 -15 16 -189 -131 -257 -217 -79 -98 -125
-193 -141 -286 l-13 -76 -27 29 c-25 26 -26 30 -12 42 30 25 55 88 55 138 0
68 -47 158 -129 245 -79 84 -161 151 -172 140 -4 -4 -17 -42 -28 -83 -29 -104
-29 -258 0 -335 37 -98 84 -138 177 -151 l52 -7 65 -100 c35 -56 63 -103 61
-105 -3 -2 -36 8 -75 22 -77 28 -227 60 -330 71 l-63 7 7 -33 c4 -19 22 -73
39 -121 110 -294 336 -462 525 -389 30 11 56 20 57 18 8 -9 40 -187 34 -187
-5 0 -12 5 -15 10 -11 17 -97 57 -170 79 -75 22 -223 46 -232 38 -9 -10 29
-122 65 -192 74 -143 189 -224 303 -213 46 5 49 4 49 -19 0 -41 -72 -393 -80
-393 -5 0 -29 9 -55 20 -42 18 -46 23 -40 43 20 59 17 116 -9 172 -30 66 -123
188 -139 182 -20 -6 -59 -120 -65 -184 -2 -35 -7 -63 -10 -63 -6 0 -142 101
-142 105 0 2 10 20 21 40 26 44 23 120 -10 205 -33 87 -35 88 -68 51 -33 -39
-83 -128 -83 -148 0 -8 -4 -12 -9 -8 -12 7 -91 125 -91 134 0 4 20 22 45 40
88 63 113 175 65 291 -48 113 -229 355 -303 403 l-25 16 -35 -77 c-105 -232
-124 -460 -49 -597 39 -69 113 -109 189 -101 l52 6 37 -62 c48 -80 96 -149
150 -214 l43 -51 -72 -36 c-61 -31 -196 -134 -205 -157 -3 -8 85 -42 153 -59
54 -15 169 -14 218 1 22 7 55 27 74 44 l34 32 50 -31 51 -31 -29 -20 c-59 -42
-163 -170 -149 -183 3 -4 48 -7 99 -7 78 -1 99 3 142 24 29 14 59 39 70 57 24
39 35 37 57 -8 13 -27 15 -46 8 -94 -5 -33 -27 -265 -49 -515 -22 -250 -44
-479 -48 -509 l-8 -54 -125 -75 c-392 -235 -684 -378 -931 -457 -67 -21 -292
-71 -544 -121 -236 -47 -438 -87 -448 -90 -15 -5 -15 0 7 48 13 29 54 121 91
203 37 83 69 152 71 154 2 2 20 -11 40 -28 20 -18 47 -37 61 -42 44 -17 139
-10 206 14 72 26 205 112 282 181 l50 44 -75 35 c-41 19 -106 43 -145 52 -92
23 -236 24 -289 2 l-39 -17 7 31 c3 17 6 40 6 50 0 11 62 76 152 158 l152 140
18 -30 c22 -36 72 -59 129 -59 44 0 150 25 183 42 19 10 17 13 -24 51 -49 44
-132 87 -167 87 -35 0 -28 14 33 68 l57 49 35 -23 c19 -13 53 -29 75 -35 108
-29 253 63 390 246 l59 79 -46 12 c-255 65 -518 -26 -534 -184 -4 -50 -4 -50
-121 -145 l-117 -95 -11 59 c-6 32 -23 84 -38 116 l-27 58 -32 -37 c-89 -102
-117 -221 -68 -288 23 -30 23 -32 5 -46 -36 -29 -64 -47 -67 -43 -4 6 -77 442
-76 463 0 10 11 27 25 38 58 45 68 109 34 211 -21 63 -72 162 -90 173 -23 14
-103 -128 -120 -216 -17 -88 8 -156 74 -195 12 -8 19 -36 27 -119 6 -59 9
-110 7 -113 -3 -2 -32 14 -66 36 -96 62 -280 121 -483 156 -47 7 -47 4 -14
-128 31 -122 72 -218 130 -305 86 -131 187 -197 286 -190 37 3 67 12 88 27 22
15 32 18 32 9 0 -17 -66 -266 -80 -304 l-12 -29 -13 26 c-39 74 -227 157 -417
184 -56 8 -57 8 -32 -95 50 -216 215 -397 329 -362 19 5 35 8 35 6 0 -3 -15
-28 -33 -57 -38 -59 -96 -113 -141 -132 -110 -46 -417 -72 -657 -56 -252 17
-340 38 -443 104 l-49 31 94 19 c52 10 98 22 104 28 11 11 -53 80 -102 110
l-31 20 34 50 c28 43 74 159 74 190 0 14 -32 11 -95 -11 -104 -36 -165 -100
-165 -173 0 -31 -4 -39 -27 -48 -74 -28 -97 -24 -458 76 -192 53 -462 125
-600 160 l-250 63 -3 30 c-9 91 176 292 269 292 l39 0 0 -52 c1 -161 146 -251
429 -265 l123 -6 -7 24 c-18 59 -76 169 -119 226 -55 73 -105 115 -173 145
l-48 22 90 28 c50 15 96 28 104 28 8 0 28 -16 45 -36 25 -29 40 -37 76 -41 53
-5 146 21 215 62 l46 26 -23 18 c-74 58 -197 94 -264 77 -15 -4 -41 -22 -58
-40 -25 -27 -53 -41 -146 -69 -240 -75 -286 -84 -397 -79 -57 2 -103 7 -103
11 0 4 30 20 68 36 37 16 146 64 242 108 96 44 199 88 229 98 30 10 59 23 65
28 6 6 67 37 134 70 l123 61 39 -20 c50 -26 112 -25 166 1 50 24 156 133 201
206 37 59 39 57 -62 68 -126 13 -279 -33 -330 -99 -14 -19 -28 -53 -31 -80 -7
-47 -8 -48 -76 -82 -39 -20 -72 -34 -73 -32 -2 2 6 30 18 63 17 49 21 84 21
190 1 151 -19 289 -41 281 -39 -15 -146 -98 -209 -162 -158 -160 -195 -333
-97 -461 l33 -44 -35 -14 c-19 -8 -51 -22 -71 -30 -46 -19 -45 -20 -34 11 21
55 7 139 -41 237 -13 26 -26 47 -30 47 -12 0 -58 -59 -79 -100 -48 -93 -46
-177 5 -230 l25 -26 -70 -23 c-39 -13 -73 -22 -75 -19 -2 2 1 23 7 46 10 42
-3 132 -32 206 l-11 29 -45 -44 c-81 -79 -113 -177 -80 -241 12 -23 12 -27 -1
-32 -36 -14 -306 -1 -420 20 -29 5 -31 8 -22 31 20 54 7 233 -18 233 -8 0 -43
-28 -78 -62 -50 -49 -67 -73 -77 -110 -14 -55 -14 -55 -118 -28 -65 17 -81 25
-120 67 -25 26 -64 65 -88 86 l-42 40 -21 -51 -21 -51 -52 20 c-28 11 -66 30
-84 41 l-33 20 23 29 c150 186 324 415 381 500 l70 106 76 -14 c42 -8 78 -16
80 -18 2 -2 -2 -18 -8 -36 -44 -128 39 -254 239 -366 60 -33 181 -83 201 -83
9 0 10 23 6 93 -8 116 -28 194 -72 280 l-34 69 72 -6 c40 -4 99 -9 133 -12
l61 -6 -5 -48 c-6 -61 19 -104 88 -155 42 -31 168 -95 186 -95 11 0 -6 138
-22 183 -8 23 -26 59 -40 80 -14 22 -24 40 -22 42 2 1 24 5 49 9 38 6 48 3 63
-13 44 -48 136 -51 211 -7 47 28 137 120 184 189 29 43 31 48 14 55 -10 4 -76
7 -148 7 -122 0 -133 -2 -187 -28 -62 -30 -97 -70 -107 -121 l-7 -31 -101 -3
-102 -3 68 68 c37 37 87 102 111 143 52 88 133 282 122 291 -12 11 -202 -9
-286 -31 -158 -40 -287 -122 -343 -218 -21 -36 -27 -59 -28 -106 0 -34 4 -72
9 -85 8 -23 7 -23 -28 -17 -94 18 -316 106 -316 125 0 22 90 119 167 181 93
75 191 132 324 188 109 47 182 69 489 152 124 33 379 104 567 157 l341 96 179
-71 c238 -95 516 -198 688 -257 77 -27 142 -50 144 -51 2 -2 -12 -24 -30 -50
-32 -44 -34 -50 -34 -133 0 -76 4 -94 33 -154 17 -38 53 -99 79 -135 50 -70
131 -162 143 -162 10 0 76 147 96 215 27 90 25 236 -4 299 -12 27 -21 50 -20
51 2 1 22 0 45 -4 36 -5 58 -20 144 -100 l101 -94 -35 -19 c-62 -31 -97 -103
-97 -200 0 -45 25 -196 34 -205 13 -14 137 102 177 166 16 24 31 63 35 87 3
24 10 44 15 44 4 0 20 -16 35 -36 22 -28 27 -46 28 -93 1 -72 33 -118 103
-151 85 -40 323 -68 323 -39 0 28 -69 147 -113 196 -85 92 -163 124 -240 98
-23 -8 -44 -11 -48 -7 -3 4 -35 45 -69 92 -35 46 -90 110 -123 142 -69 69 -78
66 133 43 283 -31 439 -30 621 1 35 6 38 4 54 -30 25 -51 80 -93 140 -107 94
-21 264 31 419 128 l49 31 -76 50 c-115 75 -211 107 -322 107 -107 0 -160 -22
-201 -85 -21 -32 -34 -41 -75 -49 -28 -6 -64 -11 -81 -11 l-32 0 31 33 c62 63
115 207 139 371 l7 49 -39 -8 c-126 -23 -302 -124 -360 -206 -54 -77 -65 -131
-39 -203 l14 -39 -82 7 c-45 3 -99 9 -120 12 l-37 7 59 53 c41 38 71 77 100
133 43 82 94 226 106 298 l7 43 -34 -6 c-177 -31 -339 -100 -425 -182 -83 -79
-109 -151 -90 -243 l7 -37 -117 33 c-255 72 -561 175 -740 248 -195 80 -355
169 -336 187 7 8 296 130 306 130 2 0 7 -18 10 -40 10 -73 49 -125 123 -161
59 -29 77 -33 172 -37 102 -4 272 16 309 36 11 7 5 21 -30 68 -83 112 -199
201 -312 239 -15 5 13 21 114 66 73 32 134 59 135 59 1 0 0 -20 -2 -45 -10
-114 70 -223 194 -266 61 -21 86 -24 224 -24 144 1 307 21 347 44 33 18 -146
222 -264 301 -71 48 -179 90 -229 90 -13 0 -24 3 -24 8 0 8 189 103 206 102 6
0 19 -9 29 -20 9 -10 37 -27 61 -36 90 -34 200 5 307 109 70 69 169 195 162
207 -3 4 -43 14 -89 20 -112 17 -244 9 -320 -20 -95 -36 -165 -113 -166 -182
-1 -19 -18 -31 -110 -75 -61 -28 -110 -50 -110 -47 0 3 10 33 22 67 20 54 23
82 22 214 0 101 -4 157 -11 164 -9 9 -24 5 -60 -16 -224 -131 -340 -323 -274
-453 12 -24 35 -51 51 -61 l30 -18 -97 -41 c-54 -23 -115 -48 -135 -57 l-38
-15 30 59 c40 78 60 186 60 319 0 96 -14 230 -25 241 -8 7 -165 -93 -231 -147
-76 -62 -144 -146 -182 -222 -22 -46 -27 -68 -27 -140 0 -76 3 -89 26 -123 15
-21 41 -48 58 -61 l31 -23 -38 -12 c-136 -43 -262 -76 -437 -111 -234 -48
-503 -110 -628 -144 -69 -19 -87 -21 -83 -10 11 28 125 191 165 234 37 40 42
43 52 27 35 -58 101 -83 192 -72 69 7 187 42 187 54 0 18 -106 104 -155 127
-27 13 -65 24 -82 24 -18 0 -33 3 -32 8 1 9 97 92 107 92 4 0 14 -13 24 -29
39 -70 140 -79 248 -23 63 32 159 101 160 115 0 13 -108 57 -174 71 l-61 12
75 42 c82 46 93 48 130 27 36 -20 104 -18 149 4 56 29 132 118 180 210 50 96
49 97 -73 88 -187 -15 -304 -87 -322 -199 -6 -35 -12 -40 -133 -109 -109 -62
-197 -118 -277 -175 -21 -15 -22 -14 -33 49 -6 35 -11 84 -11 110 l0 46 37
-16 c43 -18 93 -13 149 13 80 37 242 230 215 257 -19 19 -235 15 -288 -5 -24
-8 -43 -12 -43 -8 0 5 29 44 66 88 l65 81 37 -26 c32 -21 45 -24 89 -20 54 6
179 63 177 82 -2 16 -75 54 -131 66 -42 10 -51 15 -42 26 6 7 27 13 46 13 79
0 154 65 193 166 23 61 56 221 48 229 -7 7 -125 -33 -182 -62 -109 -55 -184
-157 -174 -238 4 -31 -2 -43 -36 -82 l-40 -46 -17 79 c-9 44 -27 104 -38 134
-25 68 -119 229 -168 288 l-35 43 -24 -32 c-41 -55 -111 -200 -135 -279 -35
-111 -34 -254 2 -330 33 -70 80 -117 149 -148 30 -14 56 -26 58 -27 2 -2 -13
-33 -33 -70 -19 -37 -40 -87 -46 -111 l-11 -44 -53 49 c-30 26 -93 69 -142 94
-85 43 -280 113 -290 103 -3 -3 0 -45 7 -93 14 -102 50 -219 87 -283 37 -62
110 -138 157 -162 41 -21 112 -28 159 -15 69 19 8 -79 -113 -180 l-74 -62 -13
61 c-7 33 -26 89 -42 125 -31 64 -108 183 -120 183 -9 0 -66 -96 -89 -150 -62
-145 -52 -288 24 -348 19 -15 34 -30 34 -33 0 -8 -170 -134 -205 -152 -16 -8
-75 -25 -130 -36 -332 -72 -483 -128 -650 -241 -97 -66 -159 -123 -196 -181
-28 -42 -35 -47 -46 -36 -37 37 -113 293 -113 382 0 22 3 26 18 20 106 -45
187 -45 273 1 68 36 170 138 231 229 48 72 128 214 128 228 0 14 -266 8 -342
-8 -81 -17 -179 -60 -234 -101 l-36 -28 17 40 c10 21 26 71 36 109 33 125 27
115 74 115 44 0 99 29 137 73 44 51 118 225 118 277 0 15 -7 16 -53 9 -130
-21 -255 -87 -304 -161 -34 -50 -37 -117 -8 -166 27 -44 9 -54 -22 -12 -61 81
-191 184 -325 260 -66 36 -62 40 -77 -67 -15 -99 -13 -195 4 -278 l15 -70 -40
-80 c-22 -44 -44 -103 -50 -131 -14 -79 12 -158 60 -184 19 -10 19 -13 -16
-82 l-36 -70 -33 48 c-44 65 -131 149 -139 135 -19 -30 -36 -114 -36 -176 0
-86 25 -147 69 -170 17 -8 31 -19 31 -24 0 -9 -110 -175 -143 -215 l-24 -30
-7 63 c-4 35 -16 93 -28 129 -25 82 -95 225 -108 220 -15 -5 -92 -101 -128
-161 -67 -110 -95 -240 -72 -327 8 -29 26 -58 51 -82 l39 -38 -50 -25 c-27
-14 -51 -25 -53 -25 -3 0 -6 33 -9 73 -3 52 -14 93 -39 151 -19 44 -39 81 -45
83 -17 6 -93 -99 -120 -164 -30 -74 -32 -155 -4 -200 l19 -32 -57 -21 c-70
-26 -221 -67 -282 -75 l-46 -7 1 249 c0 136 -3 277 -7 313 l-8 65 118 51 118
51 16 -38 c20 -46 88 -93 168 -115 30 -9 63 -18 73 -20 22 -7 22 8 -3 88 -13
44 -34 81 -61 112 -23 26 -40 48 -38 50 2 1 43 24 90 49 47 26 114 67 148 92
45 33 70 45 96 45 46 0 102 24 138 58 67 64 97 171 97 355 0 81 -4 127 -10
127 -23 0 -118 -55 -185 -105 -81 -62 -139 -133 -166 -205 -25 -66 -24 -97 6
-155 13 -27 23 -50 22 -51 -1 -1 -27 -18 -58 -37 l-56 -35 5 77 c5 90 -20 195
-69 293 l-31 60 -34 -33 c-81 -78 -154 -229 -154 -317 0 -58 18 -108 50 -142
17 -18 30 -34 30 -35 0 -11 -234 -75 -275 -75 l-28 0 6 73 c10 106 41 208 102
332 61 122 101 178 420 581 122 154 248 315 282 360 l61 80 79 17 c43 9 82 17
85 17 4 0 10 -15 13 -34 15 -75 74 -106 204 -106 115 0 125 3 107 38 -20 38
-91 109 -127 128 -17 8 -29 17 -27 19 3 3 162 45 172 45 3 0 6 -22 6 -48 0
-132 107 -216 313 -244 81 -10 282 -6 295 7 10 9 -44 107 -100 181 -53 70
-144 147 -195 166 -18 7 -33 15 -33 18 0 3 46 21 103 40 56 19 132 49 168 66
l66 32 77 -16 c61 -13 75 -19 71 -32 -38 -96 30 -212 185 -316 54 -36 66 -41
73 -29 16 30 19 187 4 243 -8 28 -11 52 -8 52 3 0 22 -5 43 -10 27 -8 41 -20
56 -48 10 -20 36 -47 58 -60 73 -43 205 -18 357 69 31 18 57 37 57 41 0 13
-90 70 -151 94 -66 27 -158 40 -212 30 -19 -4 -52 -18 -73 -32 l-37 -26 -76
30 c-101 39 -145 53 -211 67 l-54 11 92 47 c50 26 135 72 188 102 53 30 98 55
100 55 2 0 4 -9 4 -20 0 -37 39 -97 77 -121 30 -19 51 -23 108 -23 38 0 88 6
110 13 81 26 195 74 195 82 0 14 -100 89 -161 119 -31 16 -86 35 -123 41 l-66
13 24 25 c40 44 46 62 30 100 l-14 34 -29 -40 c-32 -44 -139 -143 -189 -175
l-32 -20 8 34 c12 57 7 170 -12 251 -11 42 -22 77 -25 77 -13 0 -117 -92 -149
-132 -98 -123 -109 -252 -26 -317 l25 -20 -58 -29 c-61 -31 -286 -122 -301
-122 -5 0 1 22 14 49 39 82 54 321 20 321 -25 0 -143 -78 -191 -126 -107 -106
-126 -227 -47 -291 9 -7 13 -15 11 -17 -7 -7 -338 -106 -355 -106 -12 0 -12 5
3 33 17 32 33 217 19 217 -4 0 -21 -7 -39 -16 -119 -62 -188 -179 -142 -240 8
-10 15 -22 15 -25 0 -9 -170 -32 -203 -27 -27 3 -26 5 110 208 260 390 483
753 483 788 0 16 -49 102 -58 102 -4 0 -32 -46 -62 -102z m9675 -1897 c61 -67
153 -97 248 -82 26 4 47 7 47 6 0 -1 -23 -25 -51 -54 -99 -103 -125 -217 -66
-294 l25 -33 -103 -57 c-57 -31 -106 -57 -109 -57 -3 0 15 28 40 63 51 68 88
136 80 144 -24 25 -201 7 -269 -26 -23 -11 -42 -19 -44 -17 -6 6 156 446 165
446 1 0 18 -18 37 -39z m-9545 -218 c-4 -16 -13 -41 -20 -58 -16 -42 -24 -404
-10 -501 5 -43 23 -115 39 -161 l29 -83 -60 -107 c-33 -60 -98 -166 -145 -238
-76 -114 -112 -156 -297 -341 -274 -273 -325 -314 -550 -426 -212 -106 -399
-209 -493 -273 l-67 -45 -38 172 -38 171 26 72 25 72 47 -24 c52 -27 91 -26
178 3 54 17 174 84 174 96 0 4 -39 26 -87 50 -80 40 -93 43 -165 43 -43 0 -78
2 -78 4 0 15 25 71 32 71 5 0 19 -6 31 -14 44 -27 127 -39 236 -33 90 6 198
24 249 42 9 3 -2 24 -34 66 -56 70 -118 125 -199 174 l-57 34 111 55 c61 31
116 56 122 56 6 0 8 -8 4 -19 -9 -28 17 -83 53 -113 33 -28 125 -66 180 -75
28 -5 32 -3 32 16 0 36 -37 131 -66 168 -15 20 -44 43 -65 52 -35 14 -51 31
-31 31 4 0 75 36 157 81 117 63 153 78 165 70 70 -51 74 -52 143 -48 57 4 86
13 163 51 52 26 94 51 94 56 0 15 -88 67 -143 86 -45 15 -47 17 -33 33 9 10
16 27 16 39 0 20 -3 20 -76 -14 -42 -19 -79 -33 -81 -30 -2 2 31 72 74 155 74
144 79 151 103 144 47 -13 89 -7 129 20 43 29 124 124 116 136 -7 13 -97 20
-143 11 -40 -7 -42 -6 -36 14 3 11 24 36 45 55 51 43 69 79 69 136 l0 45 38 0
c22 0 58 10 83 24 57 31 59 31 49 -1z m9313 -405 c12 -6 38 -14 57 -18 l35 -6
-65 -36 c-35 -20 -66 -35 -68 -33 -5 5 9 105 15 105 2 0 14 -5 26 -12z
m-10870 -1022 l18 -44 -69 -138 c-58 -116 -71 -135 -76 -114 -27 126 -27 129
1 222 21 71 32 92 52 103 42 23 55 18 74 -29z m1324 -336 c59 -12 115 -23 123
-25 12 -4 15 -24 16 -97 0 -74 5 -104 23 -146 25 -56 76 -108 123 -124 18 -6
26 -14 21 -19 -14 -14 -213 -51 -613 -114 -195 -31 -420 -67 -499 -80 -80 -13
-147 -22 -150 -19 -10 10 41 92 85 135 59 59 713 507 741 508 12 1 71 -8 130
-19z m571 -107 c16 -4 21 -10 17 -22 -8 -20 -98 -140 -105 -141 -4 0 -4 15 -2
33 2 18 -5 59 -16 91 l-20 58 52 -6 c28 -4 61 -10 74 -13z m635 -91 l157 -17
-80 -94 c-43 -51 -94 -115 -111 -142 -29 -46 -33 -49 -75 -49 -23 0 -141 14
-261 30 -120 17 -259 31 -310 32 l-92 1 26 31 c14 17 39 46 55 64 l29 33 30
-25 c24 -21 41 -26 82 -26 85 1 241 76 217 105 -22 27 -135 68 -187 69 -29 1
-53 2 -53 4 0 2 7 16 14 31 l15 28 193 -29 c106 -16 264 -37 351 -46z m116
-509 c3 -2 -5 -13 -17 -25 l-22 -22 -25 24 c-14 13 -25 27 -25 31 0 7 81 0 89
-8z m1191 -193 c0 -5 -2 -10 -4 -10 -3 0 -8 5 -11 10 -3 6 -1 10 4 10 6 0 11
-4 11 -10z"/>
</g>
</svg>
